<svg viewBox="0 0 64 64" xmlns="http://www.w3.org/2000/svg"><path d="m32 2c-13.1 0-24.2 8.3-28.3 20h56.6c-4.1-11.7-15.2-20-28.3-20z" fill="#83bf4f"/><path d="m32 62c13.1 0 24.2-8.3 28.3-20h-56.6c4.1 11.7 15.2 20 28.3 20z" fill="#ed4c5c"/><path d="m3.7 22c-1.1 3.1-1.7 6.5-1.7 10s.6 6.9 1.7 10h56.6c1.1-3.1 1.7-6.5 1.7-10s-.6-6.9-1.7-10z" fill="#f9f9f9"/><g fill="#fff"><path d="m59.4 44.3-.3.6h.3zm-54.5.6-.3-.6v.6zm.7-26.1h-.5c-.1.1-.2.2-.2.3h.7z"/><path d="m5.6 21v-.3h-1v-.6h1.5v.9h2.2v-2.3h-.3v1.9h-.6v-1.9h-.3v1.9h-.6v-1.9h-.3v1h-1.6c-.1.2-.2.5-.3.7v.6zm0 23.9h-.7c0 .1.1.2.2.3h.6zm-1-.6h1.5v.9h2.2v-2.3h-.3v1.9h-.6v-1.9h-.3v1.9h-.6v-1.9h-.3v1h-1.7c0 .2.1.3.1.4"/><path d="m5.6 43h-1.5c0 .1.1.2.1.3h1.4zm8-22h1.4v-.3h-1v-.6h1.5v.9h2.2v-2.3h-.3v2h-.6v-2h-.4v2h-.6v-2h-.3v1h-1.9zm-.6 0v-1.3h-1.3v.4h1v.6h-1.5v-1h-2.2v1.4h.3v-1h1.5v.9z"/><path d="m9.8 20.7h.5v.3h-.5zm-.9-1.9h6.1v.3h-6.1zm2.8 25.5h1v.6h-1.5v-1h-2.2v1.4h.3v-1h1.5v.9h2.2v-1.3h-1.3z"/><path d="m9.8 44.9h.5v.3h-.5zm-.9-1.9h6.1v.3h-6.1z"/><path d="m17.4 44.9h-.6v-2h-.4v2h-.6v-2h-.3v1h-1.9v1.3h1.4v-.3h-1v-.6h1.5v.9h2.2v-2.3h-.3zm5.6-23.9h1.3v-.3h-1v-.6h1.5v.9h2.2v-2.3h-.3v2h-.6v-2h-.3v2h-.6v-2h-.4v1h-1.8zm-.6 0v-1.3h-1.4v.4h1v.6h-1.5v-1h-2.2v1.4h.3v-1h1.6v.9z"/><path d="m18.2 18.8h6.1v.3h-6.1zm1 1.9h.5v.3h-.5zm7.5 24.2h-.6v-2h-.3v2h-.6v-2h-.4v1h-1.8v1.3h1.3v-.3h-1v-.6h1.5v.9h2.2v-2.3h-.3zm-7.5 0h.5v.3h-.5z"/><path d="m18.2 43h6.1v.3h-6.1zm2.8 1.3h1v.6h-1.5v-1h-2.2v1.4h.3v-1h1.6v.9h2.2v-1.3h-1.4zm10.7-23.3v-1.3h-1.3v.4h1v.6h-1.6v-1h-2.2v1.4h.4v-1h1.5v.9zm-4.1-2.2h6.1v.3h-6.1z"/><path d="m28.5 20.7h.5v.3h-.5zm3.8.3h1.3v-.3h-1v-.6h1.6v.9h2.2v-2.3h-.4v2h-.6v-2h-.3v2h-.6v-2h-.3v1h-1.9zm-4.7 22h6.1v.3h-6.1zm2.8 1.3h1v.6h-1.6v-1h-2.2v1.4h.4v-1h1.5v.9h2.2v-1.3h-1.3z"/><path d="m28.5 44.9h.5v.3h-.5zm7.5 0h-.6v-2h-.3v2h-.6v-2h-.3v1h-1.9v1.3h1.3v-.3h-1v-.6h1.6v.9h2.2v-2.3h-.4zm1.8-24.2h.5v.3h-.5zm-.9-1.9h6.1v.3h-6.1z"/><path d="m41.6 21h1.4v-.3h-1v-.6h1.5v.9h2.2v-2.3h-.3v2h-.6v-2h-.4v2h-.6v-2h-.3v1h-1.9zm-.6 0v-1.3h-1.3v.4h1v.6h-1.5v-1h-2.2v1.4h.3v-1h1.5v.9zm-4.1 22h6.1v.3h-6.1z"/><path d="m45.4 44.9h-.6v-2h-.4v2h-.6v-2h-.3v1h-1.9v1.3h1.4v-.3h-1v-.6h1.5v.9h2.2v-2.3h-.3zm-5.7-.6h1v.6h-1.5v-1h-2.2v1.4h.3v-1h1.5v.9h2.2v-1.3h-1.3z"/><path d="m37.8 44.9h.5v.3h-.5zm12.6-23.9v-1.3h-1.4v.4h1v.6h-1.5v-1h-2.2v1.4h.3v-1h1.6v.9z"/><path d="m47.2 20.7h.5v.3h-.5zm-1-1.9h6.1v.3h-6.1z"/><path d="m51 21h1.3v-.3h-1v-.6h1.5v.9h2.2v-2.3h-.3v2h-.6v-2h-.3v2h-.6v-2h-.4v1h-1.8zm-3.8 23.9h.5v.3h-.5z"/><path d="m49 44.3h1v.6h-1.5v-1h-2.2v1.4h.3v-1h1.6v.9h2.2v-1.3h-1.4zm-2.8-1.3h6.1v.3h-6.1z"/><path d="m54.7 44.9h-.6v-2h-.3v2h-.6v-2h-.4v1h-1.8v1.3h1.3v-.3h-1v-.6h1.5v.9h2.2v-2.3h-.3zm.9-25.8h3.5c-.1-.1-.1-.2-.2-.3h-3.4c.1 0 .1.3.1.3m2.8 1h1v.6h-1.5v-.9h-2.2v1.3h.3v-1h1.5v.9h2.2v-.5c-.1-.2-.2-.5-.3-.7h-1z"/><path d="m56.5 20.7h.5v.3h-.5zm0 24.2h.5v.3h-.5zm-.9-1.9v.3h4.2c0-.1.1-.2.1-.3zm2.8 1.3h1c.1-.1.1-.2.2-.4h-1.2z"/><path d="m57.8 44.9v-.9h-2.2v1.3h.4v-1h1.5v.9h1.4c.1-.1.1-.2.2-.3z"/></g><g fill="#ed4c5c"><path d="m36.5 33.9c.9-2.6 0-5.5-2-7.3 2.3 3.4 1.4 7.9-1.8 10.3l.2-5.6v-4.4c-.4-.2-.7-.4-.9-.7-.2.3-.5.6-.9.7v4.4l.2 5.6c-3.3-2.4-4.1-6.9-1.8-10.3-2.1 1.8-2.9 4.7-2 7.3.6 1.8 1.8 3.1 3.3 3.9-.9.3-1.9.5-2.9.5 1.2.4 2.4.4 3.5.2v.2l.6.8.6-.8v-.2c1.1.2 2.3.2 3.5-.2-1 0-2-.1-2.9-.5 1.5-.8 2.7-2.2 3.3-3.9"/><path d="m38.7 29.1c-.8-1.3-2.1-2.3-3.6-2.7 3.3 2.5 4 7.2 1.5 10.5 2.8-1.5 3.7-5 2.1-7.8m-9.9-2.7c-1.5.4-2.8 1.3-3.6 2.7-1.6 2.7-.6 6.2 2.1 7.8-2.4-3.3-1.8-8 1.5-10.5m1.7-.4c.5.3 1.2.2 1.5-.3.3.5 1 .6 1.5.3.4-.3.6-.8.4-1.3-.1.6-.6.9-1.2.8-.3-.1-.5-.2-.7-.5-.1.3-.4.4-.7.5-.6.1-1.1-.3-1.2-.8-.2.5 0 1 .4 1.3"/></g></svg>