<svg xmlns="http://www.w3.org/2000/svg" version="1.1" xmlns:xlink="http://www.w3.org/1999/xlink" xmlns:svgjs="http://svgjs.dev/svgjs" viewBox="0 0 1920 1080"><rect width="1920" height="1080" fill="#012656"></rect><g transform="matrix(1.1108147002324285,0.29764190186789885,-0.29764190186789885,1.1108147002324285,59.695048274893,-331.2049391584377)"><path d="M0,-1080C14.716517898487373,-997.7180010960981,72.78455383392595,-774.0526722441826,88.29910739092423,-586.3080065765881C103.81366094792251,-398.5633409089936,115.5728247788802,-137.8214858649311,93.0873213419897,46.46799400556722C70.60181790509921,230.75747387606555,-34.47695220343879,362.2373988520998,-46.61391323041873,519.4288726464017C-58.75087425739867,676.6203464407037,28.574552679589374,812.3759319421602,20.265555180110056,989.6168367713789C11.956557680630736,1166.8577416005976,-93.0903056972763,1387.8104410836104,-96.46789822729465,1582.8743016217138C-99.845490757313,1777.9381621598172,-16.077983037882444,2063.812383603619,0,2160L 1920 2160 L 1920 -1080 Z" fill="url(&quot;#SvgjsLinearGradient1649&quot;)"></path><path d="M240,-1080C245.84270445053417,-941.3229045757869,270.65333956923564,-512.0472588336658,275.0562267032051,-247.9374274547212C279.4591138371745,16.172403924223346,288.51873068111877,238.77319510083458,266.4173228038165,504.6589882736671C244.31591492651424,770.5447814464997,146.850666573361,1071.4871629612182,142.44777943939158,1347.3773315822737C138.04489230542217,1623.267500203329,223.74129657323192,2024.5628885970457,240,2160L 1920 2160 L 1920 -1080 Z" fill="url(&quot;#SvgjsLinearGradient1650&quot;)"></path><path d="M480,-1080C482.85566594725185,-964.7077124480002,511.2762836333988,-614.5555438322599,497.133995683511,-388.2462746880012C482.9917077336232,-161.93700554374254,393.7390396459185,51.91760826792759,395.146272300673,277.85561486555207C396.55350495542746,503.7936214631766,479.52996395284686,765.3748513125628,505.5773916120376,967.3817648977456C531.6248192712284,1169.3886784829283,555.6937368578238,1291.1273905262733,551.4308382558174,1489.897096376649C547.1679396538111,1688.6668022270246,491.9051397093029,2048.3161827294416,480,2160L 1920 2160 L 1920 -1080 Z" fill="url(&quot;#SvgjsLinearGradient1651&quot;)"></path><path d="M720,-1080C722.3569471668457,-985.9761272590723,744.7060892816348,-722.2366965626455,734.1416830010743,-515.8567635544339C723.5772767205137,-309.47683054622223,670.2684030365604,-81.39019304935394,656.6135623166368,158.27959804926996C642.9587215967133,397.94938914789384,646.0813822010576,679.5225894450351,652.2126386815328,922.1619830373096C658.3438951620079,1164.8013766295842,682.1032076464098,1407.8096234424686,693.4011011994877,1614.115959602917C704.6989947525656,1820.4222957633654,715.5668501999146,2069.0193266004862,720,2160L 1920 2160 L 1920 -1080 Z" fill="url(&quot;#SvgjsLinearGradient1652&quot;)"></path><path d="M960,-1080C972.0583951569419,-956.3534613100899,1027.8734742505171,-591.5077097479799,1032.350370941651,-338.12076786053933C1036.8272676327847,-84.73382597309873,1015.2226904583604,155.31394186292061,986.8613801468024,440.3216513246437C958.5000698352444,725.3293607863668,866.6594057634368,1085.3124307972396,862.182509072303,1371.925488909799C857.7056123811692,1658.5385470223584,943.6970848453839,2028.654248151633,960,2160L 1920 2160 L 1920 -1080 Z" fill="url(&quot;#SvgjsLinearGradient1653&quot;)"></path><path d="M1200,-1080C1203.582107063628,-1001.842092947038,1213.797788464545,-755.7317142290117,1221.4926423817674,-611.0525576822284C1229.1874962989898,-466.3734011354452,1266.7622322524824,-373.790061193936,1246.1691235033347,-211.92506071930066C1225.576014754187,-50.060060244665294,1117.9928689829894,182.09235260027165,1097.9339898868816,360.1374451655837C1077.8751107907738,538.1825377308958,1116.7829562943587,724.4986865956755,1125.8158489266873,856.3454946725715C1134.848741559016,988.1923027494674,1155.167774643972,1012.2507511393102,1152.1313456808537,1151.2182936269596C1149.0949167177353,1290.185836114609,1099.6191660947857,1522.020465202961,1107.5972751479767,1690.1507495984679C1115.5753842011677,1858.2810339939747,1184.5995458579962,2081.6917915997446,1200,2160L 1920 2160 L 1920 -1080 Z" fill="url(&quot;#SvgjsLinearGradient1654&quot;)"></path><path d="M1440,-1080C1431.1583190347967,-954.1961706991535,1391.1747241737326,-578.5412154313498,1386.9499142087807,-325.17702419492093C1382.7251042438288,-71.8128329584921,1391.8872534282898,167.8732633220551,1414.651140210288,440.1851474185731C1437.4150269922864,712.4970315150911,1519.308424935818,1022.0584716206157,1523.5332349007701,1308.6942803841869C1527.7580448657222,1595.330089147758,1453.922205816795,2018.1157133973645,1440,2160L 1920 2160 L 1920 -1080 Z" fill="url(&quot;#SvgjsLinearGradient1655&quot;)"></path><path d="M1680,-1080C1665.590670842389,-999.8109857326926,1591.0059830238129,-752.6190515281323,1593.5440250543347,-598.8659143961556C1596.0820670848566,-445.11277726417893,1667.953772725536,-302.09115259685814,1695.2282521831305,-157.48117720813968C1722.502731640725,-12.871201819421259,1775.2491509196313,115.39206557744913,1757.1909017999008,268.793937936155C1739.1326526801702,422.19581029486085,1586.0836704766225,595.7193725993106,1586.8787574647467,762.9300569440954C1587.673844452871,930.1407412888802,1731.9177847953379,1099.736569821721,1761.9614237286467,1272.0580440048634C1792.0050626619554,1444.3795181880057,1780.8008283527076,1648.8685760437595,1767.1405910646,1796.858902042949C1753.4803537764922,1944.8492280421385,1694.5234318441,2099.476483673825,1680,2160L 1920 2160 L 1920 -1080 Z" fill="url(&quot;#SvgjsLinearGradient1656&quot;)"></path></g><defs><linearGradient x1="0.1" y1="0" x2="0" y2="1" id="SvgjsLinearGradient1649"><stop stop-color="#012656" offset="0"></stop><stop stop-color="#013456" offset="0"></stop></linearGradient><linearGradient x1="0.1" y1="0" x2="0" y2="1" id="SvgjsLinearGradient1650"><stop stop-color="#023e8d" offset="0"></stop><stop stop-color="#02558d" offset="0.125"></stop></linearGradient><linearGradient x1="0.1" y1="0" x2="0" y2="1" id="SvgjsLinearGradient1651"><stop stop-color="#0257c4" offset="0"></stop><stop stop-color="#0277c4" offset="0.25"></stop></linearGradient><linearGradient x1="0.1" y1="0" x2="0" y2="1" id="SvgjsLinearGradient1652"><stop stop-color="#036ffb" offset="0"></stop><stop stop-color="#0398fb" offset="0.375"></stop></linearGradient><linearGradient x1="0.1" y1="0" x2="0" y2="1" id="SvgjsLinearGradient1653"><stop stop-color="#398efd" offset="0"></stop><stop stop-color="#39affd" offset="0.5"></stop></linearGradient><linearGradient x1="0.1" y1="0" x2="0" y2="1" id="SvgjsLinearGradient1654"><stop stop-color="#70adfd" offset="0"></stop><stop stop-color="#70c4fd" offset="0.625"></stop></linearGradient><linearGradient x1="0.1" y1="0" x2="0" y2="1" id="SvgjsLinearGradient1655"><stop stop-color="#a7cdfe" offset="0"></stop><stop stop-color="#a7dbfe" offset="0.75"></stop></linearGradient><linearGradient x1="0.1" y1="0" x2="0" y2="1" id="SvgjsLinearGradient1656"><stop stop-color="#deecff" offset="0"></stop><stop stop-color="#def1ff" offset="0.875"></stop></linearGradient></defs></svg>